<svg width="2324" height="419" viewBox="0 0 2324 419" fill="none" xmlns="http://www.w3.org/2000/svg">
<path d="M78.6807 418.611H0V178.854C9.59345e-05 162.647 6.43896 147.103 17.8994 135.643L78.6807 74.8613V418.611ZM385 418.611H78.6807L164.509 354.4C175.076 346.495 187.92 342.223 201.117 342.223H385V418.611ZM385 247.5H78.6807L164.509 183.289C175.076 175.383 187.92 171.111 201.117 171.111H385V247.5ZM385 76.3887H78.6807L164.509 12.1787C175.076 4.27282 187.92 0 201.117 0H385V76.3887Z" fill="white"/>
<path d="M485 336.406H495.8V88.0057H485V85.2056H650.2V120.806C647.8 116.806 644.867 112.939 641.4 109.206C637.933 105.206 633.8 101.606 629 98.4057C624.467 95.2057 619.267 92.6723 613.4 90.8056C607.533 88.939 601.133 88.0057 594.2 88.0057H529.8V209.606H539.8C549.667 209.606 557.933 208.939 564.6 207.606C571.267 206.006 576.733 203.872 581 201.206C585.267 198.272 588.467 194.806 590.6 190.806C593 186.539 594.733 181.872 595.8 176.806V245.206C594.733 240.139 593 235.606 590.6 231.606C588.467 227.339 585.267 223.872 581 221.206C576.733 218.272 571.267 216.006 564.6 214.406C557.933 212.806 549.667 212.006 539.8 212.006H529.8V336.406H594.2C601.133 336.406 607.533 335.472 613.4 333.606C619.267 331.739 624.467 329.206 629 326.006C633.8 322.806 637.933 319.339 641.4 315.606C644.867 311.606 647.8 307.606 650.2 303.606V338.806H485V336.406ZM754.103 338.806C738.636 338.806 724.77 336.806 712.503 332.806C700.503 328.539 690.236 322.672 681.703 315.206C673.436 307.472 667.036 298.406 662.503 288.006C657.97 277.339 655.703 265.472 655.703 252.406C655.703 239.339 657.97 227.472 662.503 216.806C667.036 206.139 673.436 197.072 681.703 189.606C690.236 181.872 700.503 176.006 712.503 172.006C724.77 167.739 738.636 165.606 754.103 165.606C772.503 165.606 788.503 168.539 802.103 174.406C815.703 180.006 826.636 188.006 834.903 198.406L811.303 209.206C805.97 195.339 798.236 185.072 788.103 178.406C778.236 171.472 766.903 168.006 754.103 168.006C745.036 168.006 736.503 169.872 728.503 173.606C720.77 177.072 713.97 182.272 708.103 189.206C702.503 196.139 698.103 204.939 694.903 215.606C691.703 226.006 690.103 238.272 690.103 252.406C690.103 266.272 691.703 278.539 694.903 289.206C698.103 299.606 702.503 308.272 708.103 315.206C713.97 322.139 720.77 327.472 728.503 331.206C736.503 334.672 745.036 336.406 754.103 336.406C763.703 336.406 772.77 335.206 781.303 332.806C789.836 330.139 797.57 326.539 804.503 322.006C811.436 317.206 817.303 311.606 822.103 305.206C826.903 298.539 830.37 291.206 832.503 283.206L834.903 284.006C832.77 292.006 829.17 299.472 824.103 306.406C819.036 313.072 812.903 318.806 805.703 323.606C798.77 328.406 790.77 332.139 781.703 334.806C772.903 337.472 763.703 338.806 754.103 338.806ZM845.947 94.4056L845.547 92.0056L890.347 85.2056V192.806C894.347 183.739 900.614 176.939 909.147 172.406C917.68 167.872 926.747 165.606 936.347 165.606C944.88 165.606 953.814 166.806 963.147 169.206C972.747 171.339 981.414 175.206 989.147 180.806C996.88 186.406 1003.28 194.006 1008.35 203.606C1013.41 212.939 1015.95 224.672 1015.95 238.806V336.406H1026.75V338.806H971.147V336.406H981.947V238.806C981.947 223.606 980.347 211.339 977.147 202.006C973.947 192.672 969.947 185.472 965.147 180.406C960.347 175.339 955.28 172.006 949.947 170.406C944.88 168.539 940.347 167.606 936.347 167.606C926.214 167.606 916.747 170.272 907.947 175.606C899.414 180.672 893.547 188.272 890.347 198.406V336.406H901.147V338.806H845.547V336.406H856.347V92.8057L845.947 94.4056ZM1127.39 338.806C1112.72 338.806 1099.66 336.539 1088.19 332.006C1076.72 327.206 1067.12 320.806 1059.39 312.806C1051.66 304.806 1045.66 295.606 1041.39 285.206C1037.39 274.806 1035.39 263.872 1035.39 252.406C1035.39 240.672 1037.39 229.606 1041.39 219.206C1045.66 208.806 1051.66 199.606 1059.39 191.606C1067.12 183.606 1076.72 177.339 1088.19 172.806C1099.66 168.006 1112.72 165.606 1127.39 165.606C1138.59 165.606 1148.72 167.206 1157.79 170.406C1166.86 173.606 1174.72 177.872 1181.39 183.206C1188.32 188.539 1193.92 194.672 1198.19 201.606C1202.46 208.539 1205.39 215.739 1206.99 223.206L1207.39 224.006L1072.59 283.206C1076.32 300.806 1082.99 314.139 1092.59 323.206C1102.19 332.006 1113.79 336.406 1127.39 336.406C1136.72 336.406 1145.66 335.206 1154.19 332.806C1162.72 330.139 1170.46 326.539 1177.39 322.006C1184.32 317.206 1190.19 311.606 1194.99 305.206C1200.06 298.539 1203.66 291.206 1205.79 283.206L1208.19 284.006C1206.06 292.006 1202.46 299.472 1197.39 306.406C1192.32 313.072 1186.19 318.806 1178.99 323.606C1171.79 328.406 1163.79 332.139 1154.99 334.806C1146.19 337.472 1136.99 338.806 1127.39 338.806ZM1127.39 168.006C1110.32 168.006 1096.46 175.072 1085.79 189.206C1075.12 203.072 1069.79 224.139 1069.79 252.406C1069.79 262.539 1070.59 272.006 1072.19 280.806L1173.39 236.406C1173.39 227.072 1172.32 218.272 1170.19 210.006C1168.06 201.739 1164.99 194.539 1160.99 188.406C1157.26 182.006 1152.46 177.072 1146.59 173.606C1140.99 169.872 1134.59 168.006 1127.39 168.006ZM1218.6 94.4056L1218.2 92.0056L1263 85.2056V336.406H1273.8V338.806H1218.2V336.406H1229V92.8057L1218.6 94.4056ZM1376.22 338.806C1361.55 338.806 1348.49 336.539 1337.02 332.006C1325.55 327.206 1315.95 320.806 1308.22 312.806C1300.49 304.806 1294.49 295.606 1290.22 285.206C1286.22 274.806 1284.22 263.872 1284.22 252.406C1284.22 240.672 1286.22 229.606 1290.22 219.206C1294.49 208.806 1300.49 199.606 1308.22 191.606C1315.95 183.606 1325.55 177.339 1337.02 172.806C1348.49 168.006 1361.55 165.606 1376.22 165.606C1390.89 165.606 1403.82 168.006 1415.02 172.806C1426.49 177.339 1436.09 183.606 1443.82 191.606C1451.82 199.606 1457.82 208.806 1461.82 219.206C1465.82 229.606 1467.82 240.672 1467.82 252.406C1467.82 263.872 1465.82 274.806 1461.82 285.206C1457.82 295.606 1451.82 304.806 1443.82 312.806C1436.09 320.806 1426.49 327.206 1415.02 332.006C1403.82 336.539 1390.89 338.806 1376.22 338.806ZM1376.22 168.006C1359.15 168.006 1345.29 175.072 1334.62 189.206C1323.95 203.072 1318.62 224.139 1318.62 252.406C1318.62 280.406 1323.95 301.472 1334.62 315.606C1345.29 329.472 1359.15 336.406 1376.22 336.406C1393.29 336.406 1407.15 329.472 1417.82 315.606C1428.49 301.472 1433.82 280.406 1433.82 252.406C1433.82 224.139 1428.49 203.072 1417.82 189.206C1407.15 175.072 1393.29 168.006 1376.22 168.006ZM1477.2 174.406L1476.8 172.006L1521.6 165.606V192.806C1525.6 183.739 1531.86 176.939 1540.4 172.406C1548.93 167.872 1558 165.606 1567.6 165.606C1576.13 165.606 1585.06 166.806 1594.4 169.206C1604 171.339 1612.66 175.206 1620.4 180.806C1628.13 186.406 1634.53 194.006 1639.6 203.606C1644.66 212.939 1647.2 224.672 1647.2 238.806V336.406H1658V338.806H1602.4V336.406H1613.2V238.806C1613.2 223.606 1611.6 211.339 1608.4 202.006C1605.2 192.672 1601.2 185.472 1596.4 180.406C1591.6 175.339 1586.53 172.006 1581.2 170.406C1576.13 168.539 1571.6 167.606 1567.6 167.606C1557.46 167.606 1548 170.272 1539.2 175.606C1530.66 180.672 1524.8 188.272 1521.6 198.406V336.406H1532.4V338.806H1476.8V336.406H1487.6V172.806L1477.2 174.406Z" fill="white"/>
<path d="M1742 336.406H1752.8V88.0057H1742V85.2056H1907.2V120.806C1904.8 116.806 1901.87 112.939 1898.4 109.206C1894.93 105.206 1890.8 101.606 1886 98.4057C1881.47 95.2057 1876.27 92.6723 1870.4 90.8056C1864.53 88.939 1858.13 88.0057 1851.2 88.0057H1786.8V209.606H1796.8C1806.67 209.606 1814.93 208.939 1821.6 207.606C1828.27 206.006 1833.73 203.872 1838 201.206C1842.27 198.272 1845.47 194.806 1847.6 190.806C1850 186.539 1851.73 181.872 1852.8 176.806V245.206C1851.73 240.139 1850 235.606 1847.6 231.606C1845.47 227.339 1842.27 223.872 1838 221.206C1833.73 218.272 1828.27 216.006 1821.6 214.406C1814.93 212.806 1806.67 212.006 1796.8 212.006H1786.8V336.406H1851.2C1858.13 336.406 1864.53 335.472 1870.4 333.606C1876.27 331.739 1881.47 329.206 1886 326.006C1890.8 322.806 1894.93 319.339 1898.4 315.606C1901.87 311.606 1904.8 307.606 1907.2 303.606V338.806H1742V336.406ZM1923.26 94.4056L1922.86 92.0056L1967.66 85.2056V336.406H1978.46V338.806H1922.86V336.406H1933.66V92.8057L1923.26 94.4056ZM2020 144.006C2015.2 144.006 2011.07 142.406 2007.6 139.206C2004.4 135.739 2002.8 131.739 2002.8 127.206C2002.8 122.406 2004.4 118.406 2007.6 115.206C2011.07 111.739 2015.2 110.006 2020 110.006C2024.53 110.006 2028.4 111.739 2031.6 115.206C2035.07 118.406 2036.8 122.406 2036.8 127.206C2036.8 131.739 2035.07 135.739 2031.6 139.206C2028.4 142.406 2024.53 144.006 2020 144.006ZM1992.4 174.406L1992 172.006L2036.8 165.606V336.406H2047.6V338.806H1992V336.406H2002.8V172.806L1992.4 174.406ZM2080.64 165.606C2080.64 150.406 2079.71 138.939 2077.84 131.206C2076.24 123.206 2072.51 119.206 2066.64 119.206C2062.11 119.206 2056.11 122.272 2048.64 128.406V126.406C2059.31 116.006 2069.97 111.072 2080.64 111.606C2093.17 111.606 2101.84 116.406 2106.64 126.006C2111.71 135.606 2114.24 148.806 2114.24 165.606H2142.24V168.006H2114.24V285.206C2114.24 295.339 2114.64 303.739 2115.44 310.406C2116.51 317.072 2117.97 322.406 2119.84 326.406C2121.71 330.139 2123.97 332.806 2126.64 334.406C2129.57 336.006 2133.04 336.806 2137.04 336.806V338.806C2130.91 338.806 2124.51 338.272 2117.84 337.206C2111.17 336.139 2105.04 333.872 2099.44 330.406C2094.11 326.672 2089.57 321.339 2085.84 314.406C2082.37 307.206 2080.64 297.472 2080.64 285.206V168.006H2059.44V165.606H2080.64ZM2228.14 338.806C2213.47 338.806 2200.41 336.539 2188.94 332.006C2177.47 327.206 2167.87 320.806 2160.14 312.806C2152.41 304.806 2146.41 295.606 2142.14 285.206C2138.14 274.806 2136.14 263.872 2136.14 252.406C2136.14 240.672 2138.14 229.606 2142.14 219.206C2146.41 208.806 2152.41 199.606 2160.14 191.606C2167.87 183.606 2177.47 177.339 2188.94 172.806C2200.41 168.006 2213.47 165.606 2228.14 165.606C2239.34 165.606 2249.47 167.206 2258.54 170.406C2267.61 173.606 2275.47 177.872 2282.14 183.206C2289.07 188.539 2294.67 194.672 2298.94 201.606C2303.21 208.539 2306.14 215.739 2307.74 223.206L2308.14 224.006L2173.34 283.206C2177.07 300.806 2183.74 314.139 2193.34 323.206C2202.94 332.006 2214.54 336.406 2228.14 336.406C2237.47 336.406 2246.41 335.206 2254.94 332.806C2263.47 330.139 2271.21 326.539 2278.14 322.006C2285.07 317.206 2290.94 311.606 2295.74 305.206C2300.81 298.539 2304.41 291.206 2306.54 283.206L2308.94 284.006C2306.81 292.006 2303.21 299.472 2298.14 306.406C2293.07 313.072 2286.94 318.806 2279.74 323.606C2272.54 328.406 2264.54 332.139 2255.74 334.806C2246.94 337.472 2237.74 338.806 2228.14 338.806ZM2228.14 168.006C2211.07 168.006 2197.21 175.072 2186.54 189.206C2175.87 203.072 2170.54 224.139 2170.54 252.406C2170.54 262.539 2171.34 272.006 2172.94 280.806L2274.14 236.406C2274.14 227.072 2273.07 218.272 2270.94 210.006C2268.81 201.739 2265.74 194.539 2261.74 188.406C2258.01 182.006 2253.21 177.072 2247.34 173.606C2241.74 169.872 2235.34 168.006 2228.14 168.006Z" fill="white"/>
</svg>